<?xml version="1.0" standalone="no"?>
<!DOCTYPE svg PUBLIC "-//W3C//DTD SVG 20010904//EN"
 "http://www.w3.org/TR/2001/REC-SVG-20010904/DTD/svg10.dtd">
<svg version="1.0" xmlns="http://www.w3.org/2000/svg"
 width="242.000000pt" height="242.000000pt" viewBox="0 0 242.000000 242.000000"
 preserveAspectRatio="xMidYMid meet">
<metadata>
Created by potrace 1.11, written by Peter Selinger 2001-2013
</metadata>
<g transform="translate(0.000000,242.000000) scale(0.100000,-0.100000)"
fill="#000000" stroke="none">
<path d="M12 1213 l3 -1208 1202 -3 1203 -2 0 1210 0 1210 -1205 0 -1205 0 2
-1207z m475 960 l3 -223 -215 0 -215 0 0 224 0 223 213 -1 212 -1 2 -222z
m478 2 l0 -220 -222 -3 c-175 -2 -223 0 -224 10 -4 79 -1 417 4 425 4 7 81 10
224 9 l218 -1 0 -220z m480 27 c0 -192 0 -193 -25 -223 l-26 -29 -199 2 -200
3 0 221 0 221 224 -1 225 -1 1 -193z m476 169 c2 -68 1 -102 -4 -107 -3 -3
-49 -21 -102 -39 -107 -38 -204 -88 -282 -146 -29 -21 -54 -39 -56 -39 -5 0
-6 342 -1 351 2 3 102 6 224 6 l220 0 1 -26z m481 -135 c2 -89 2 -189 0 -223
l-3 -63 -224 0 -225 0 0 89 c0 59 4 92 13 99 16 13 111 31 207 39 89 7 106 14
114 48 15 57 -38 87 -129 74 -27 -4 -66 -10 -85 -12 -19 -3 -54 -8 -77 -12
l-43 -8 0 65 0 65 225 0 224 0 3 -161z m-480 -181 c0 -38 -1 -78 -1 -87 -1
-16 -16 -18 -178 -18 l-178 1 30 25 c66 55 278 157 314 151 10 -1 14 -20 13
-72z m-1434 -360 l1 -225 -214 0 -215 0 0 225 0 225 214 0 213 0 1 -225z m478
-2 l0 -223 -223 0 c-205 0 -223 1 -224 18 -1 26 -1 394 0 415 1 16 17 17 224
15 l222 -3 1 -222z m370 175 c-55 -87 -96 -205 -113 -321 -3 -21 -6 -46 -7
-55 -3 -15 -17 -17 -112 -17 l-109 0 0 223 0 222 187 0 188 0 -34 -52z m585
27 c0 -14 0 -108 0 -210 0 -102 0 -192 0 -200 -1 -13 -33 -15 -224 -15 l-224
0 1 193 c1 268 -10 256 254 257 l192 0 1 -25z m481 -167 c2 -106 2 -208 0
-225 l-3 -33 -225 0 -224 0 0 225 0 225 225 0 224 0 3 -192z m-958 -90 l0
-163 -57 -3 c-43 -2 -56 0 -52 10 2 7 6 32 9 55 6 52 15 90 28 128 15 45 60
135 67 135 3 0 6 -73 5 -162z m-956 -421 l0 -224 -214 0 -214 0 0 224 0 223
214 0 214 0 0 -223z m478 1 l-1 -223 -222 -1 -223 -1 -1 26 c-1 32 -1 391 0
409 1 9 53 12 224 12 l223 0 0 -222z m250 164 c6 -210 6 -264 0 -316 -4 -33
-9 -63 -11 -67 -3 -3 -51 -6 -107 -5 l-103 1 0 223 0 222 110 0 110 0 1 -58z
m228 -155 c-1 -116 -2 -217 -3 -223 -1 -6 -24 -11 -57 -12 l-56 0 7 61 c8 68
8 207 1 306 -3 35 -3 68 0 73 3 4 29 8 57 8 l52 0 -1 -213z m477 191 c1 -38 1
-361 0 -394 l-1 -31 -223 0 -223 0 1 216 c1 119 2 219 3 224 1 4 101 7 222 7
l220 0 1 -22z m481 -130 c2 -84 2 -185 0 -224 l-3 -71 -224 0 -224 0 -1 223 0
224 224 0 225 0 3 -152z m-1926 -327 c9 -1 12 -64 12 -224 l0 -222 -212 0
-211 0 -3 219 c-1 127 2 222 7 225 7 5 354 6 407 2z m480 0 c7 -1 11 -56 10
-175 -1 -198 6 -181 -101 -241 -48 -27 -55 -28 -197 -29 l-148 -2 -1 26 c-1
30 -1 389 0 410 1 13 31 15 213 13 117 -1 218 -2 224 -2z m241 0 c7 -2 -44
-122 -72 -168 -30 -50 -114 -153 -125 -153 -3 0 -5 71 -5 158 0 145 1 157 19
162 14 4 172 5 183 1z m240 -4 c8 -8 11 -436 3 -438 -3 -1 -93 -2 -201 -3
l-196 -1 71 71 c78 78 142 177 174 269 41 118 34 110 90 110 28 -1 54 -4 59
-8z m484 -2 c6 -79 2 -428 -6 -434 -5 -4 -107 -7 -225 -7 l-215 1 -1 215 c-1
118 2 220 6 225 5 6 92 10 224 10 137 0 216 -4 217 -10z m479 -146 c3 -85 3
-185 0 -224 l-5 -70 -220 0 -220 0 -2 215 c-1 118 2 219 7 225 5 6 87 10 222
9 l213 0 5 -155z m-1914 -357 c1 -17 -2 -33 -5 -33 -11 -3 -45 -7 -100 -13
-57 -6 -74 -16 -86 -53 -9 -32 32 -72 71 -68 47 4 98 7 110 6 7 -1 12 -42 13
-121 l1 -120 -215 0 -215 0 0 218 0 217 213 0 212 0 1 -33z m224 28 c0 -6 -61
-28 -100 -35 -10 -2 -34 -8 -53 -13 -30 -9 -36 -7 -39 6 -10 43 -1 47 98 47
51 1 94 -2 94 -5z m731 0 c3 -18 4 -407 1 -417 -3 -10 -57 -13 -222 -13 -165
0 -219 3 -222 13 -4 10 -3 422 1 422 0 0 100 0 221 0 121 0 220 -2 221 -5z
m480 -22 c0 -16 1 -112 1 -215 l1 -188 -224 -3 -225 -2 -1 212 c0 117 3 215 8
218 4 3 105 5 223 5 l216 0 1 -27z m479 -99 c3 -69 4 -167 2 -217 l-3 -92
-225 0 -224 0 0 213 c0 118 2 216 4 218 3 2 103 4 223 4 l218 0 5 -126z
m-1435 -106 l0 -198 -222 -3 -223 -2 -1 42 c-1 72 -1 182 0 199 1 9 7 16 14
16 65 2 244 59 347 111 41 21 77 37 80 36 3 -1 5 -91 5 -201z"/>
</g>
</svg>
